<?xml version="1.0" encoding="UTF-8" standalone="no"?>
<!DOCTYPE svg PUBLIC "-//W3C//DTD SVG 1.1//EN"
 "http://www.w3.org/Graphics/SVG/1.1/DTD/svg11.dtd">
<!-- Generated by graphviz version 2.43.0 (0)
 -->
<!-- Title: xref graph Pages: 1 -->
<svg width="2588pt" height="524pt"
 viewBox="0.00 0.00 2587.82 524.00" xmlns="http://www.w3.org/2000/svg" xmlns:xlink="http://www.w3.org/1999/xlink">
<g id="graph0" class="graph" transform="scale(1 1) rotate(0) translate(4 520)">
<title>xref graph</title>
<polygon fill="white" stroke="transparent" points="-4,4 -4,-520 2583.82,-520 2583.82,4 -4,4"/>
<!-- lib/discord_clone.ex -->
<g id="node1" class="node">
<title>lib/discord_clone.ex</title>
<ellipse fill="none" stroke="black" cx="102.04" cy="-498" rx="102.08" ry="18"/>
<text text-anchor="middle" x="102.04" y="-494.3" font-family="Times,serif" font-size="14.00">lib/discord_clone.ex</text>
</g>
<!-- lib/discord_clone/application.ex -->
<g id="node2" class="node">
<title>lib/discord_clone/application.ex</title>
<ellipse fill="none" stroke="black" cx="378.04" cy="-498" rx="155.97" ry="18"/>
<text text-anchor="middle" x="378.04" y="-494.3" font-family="Times,serif" font-size="14.00">lib/discord_clone/application.ex</text>
</g>
<!-- lib/discord_clone/repo.ex -->
<g id="node3" class="node">
<title>lib/discord_clone/repo.ex</title>
<ellipse fill="none" stroke="black" cx="224.04" cy="-425" rx="126.18" ry="18"/>
<text text-anchor="middle" x="224.04" y="-421.3" font-family="Times,serif" font-size="14.00">lib/discord_clone/repo.ex</text>
</g>
<!-- lib/discord_clone/application.ex&#45;&gt;lib/discord_clone/repo.ex -->
<g id="edge1" class="edge">
<title>lib/discord_clone/application.ex&#45;&gt;lib/discord_clone/repo.ex</title>
<path fill="none" stroke="black" d="M341.93,-480.35C320.06,-470.27 291.97,-457.32 268.7,-446.59"/>
<polygon fill="black" stroke="black" points="269.94,-443.31 259.39,-442.3 267.01,-449.66 269.94,-443.31"/>
</g>
<!-- lib/discord_clone_web/endpoint.ex -->
<g id="node4" class="node">
<title>lib/discord_clone_web/endpoint.ex</title>
<ellipse fill="none" stroke="black" cx="1109.04" cy="-425" rx="168.97" ry="18"/>
<text text-anchor="middle" x="1109.04" y="-421.3" font-family="Times,serif" font-size="14.00">lib/discord_clone_web/endpoint.ex</text>
</g>
<!-- lib/discord_clone/application.ex&#45;&gt;lib/discord_clone_web/endpoint.ex -->
<g id="edge2" class="edge">
<title>lib/discord_clone/application.ex&#45;&gt;lib/discord_clone_web/endpoint.ex</title>
<path fill="none" stroke="black" d="M493.06,-485.83C624.96,-473.02 840.7,-452.06 978.71,-438.66"/>
<polygon fill="black" stroke="black" points="979.3,-442.12 988.92,-437.67 978.63,-435.15 979.3,-442.12"/>
</g>
<!-- lib/discord_clone_web/telemetry.ex -->
<g id="node11" class="node">
<title>lib/discord_clone_web/telemetry.ex</title>
<ellipse fill="none" stroke="black" cx="599.04" cy="-265" rx="172.47" ry="18"/>
<text text-anchor="middle" x="599.04" y="-261.3" font-family="Times,serif" font-size="14.00">lib/discord_clone_web/telemetry.ex</text>
</g>
<!-- lib/discord_clone/application.ex&#45;&gt;lib/discord_clone_web/telemetry.ex -->
<g id="edge20" class="edge">
<title>lib/discord_clone/application.ex&#45;&gt;lib/discord_clone_web/telemetry.ex</title>
<path fill="none" stroke="black" d="M379.16,-479.98C381.15,-460.74 386.68,-429.21 402.04,-407 440.32,-351.66 507.69,-310.42 552.84,-287.27"/>
<polygon fill="black" stroke="black" points="554.48,-290.37 561.84,-282.75 551.33,-284.11 554.48,-290.37"/>
</g>
<!-- lib/discord_clone_web.ex -->
<g id="node5" class="node">
<title>lib/discord_clone_web.ex</title>
<ellipse fill="none" stroke="black" cx="821.04" cy="-91" rx="125.38" ry="18"/>
<text text-anchor="middle" x="821.04" y="-87.3" font-family="Times,serif" font-size="14.00">lib/discord_clone_web.ex</text>
</g>
<!-- lib/discord_clone_web/endpoint.ex&#45;&gt;lib/discord_clone_web.ex -->
<g id="edge3" class="edge">
<title>lib/discord_clone_web/endpoint.ex&#45;&gt;lib/discord_clone_web.ex</title>
<path fill="none" stroke="black" d="M954.02,-417.76C754.97,-406.12 426.17,-373.4 351.04,-283 248.92,-160.14 527.47,-115.49 698.51,-99.91"/>
<polygon fill="black" stroke="black" points="698.95,-103.38 708.6,-99.01 698.33,-96.41 698.95,-103.38"/>
<text text-anchor="middle" x="384.54" y="-261.3" font-family="Times,serif" font-size="14.00">(compile)</text>
</g>
<!-- lib/discord_clone_web/router.ex -->
<g id="node6" class="node">
<title>lib/discord_clone_web/router.ex</title>
<ellipse fill="none" stroke="black" cx="1080.04" cy="-352" rx="156.77" ry="18"/>
<text text-anchor="middle" x="1080.04" y="-348.3" font-family="Times,serif" font-size="14.00">lib/discord_clone_web/router.ex</text>
</g>
<!-- lib/discord_clone_web/endpoint.ex&#45;&gt;lib/discord_clone_web/router.ex -->
<g id="edge4" class="edge">
<title>lib/discord_clone_web/endpoint.ex&#45;&gt;lib/discord_clone_web/router.ex</title>
<path fill="none" stroke="black" d="M1102.02,-406.81C1098.67,-398.62 1094.59,-388.62 1090.86,-379.48"/>
<polygon fill="black" stroke="black" points="1094.02,-377.96 1087,-370.03 1087.54,-380.61 1094.02,-377.96"/>
</g>
<!-- lib/discord_clone_web/router.ex&#45;&gt;lib/discord_clone_web.ex -->
<g id="edge5" class="edge">
<title>lib/discord_clone_web/router.ex&#45;&gt;lib/discord_clone_web.ex</title>
<path fill="none" stroke="black" d="M981.2,-338.03C915.73,-327.17 838.31,-309.2 818.04,-283 781.17,-235.34 798.15,-159.13 811.11,-118.89"/>
<polygon fill="black" stroke="black" points="814.48,-119.84 814.36,-109.25 807.85,-117.6 814.48,-119.84"/>
<text text-anchor="middle" x="830.54" y="-217.8" font-family="Times,serif" font-size="14.00">(compile)</text>
</g>
<!-- lib/discord_clone_web/components/layouts.ex -->
<g id="node7" class="node">
<title>lib/discord_clone_web/components/layouts.ex</title>
<ellipse fill="none" stroke="black" cx="1225.04" cy="-178" rx="220.96" ry="18"/>
<text text-anchor="middle" x="1225.04" y="-174.3" font-family="Times,serif" font-size="14.00">lib/discord_clone_web/components/layouts.ex</text>
</g>
<!-- lib/discord_clone_web/router.ex&#45;&gt;lib/discord_clone_web/components/layouts.ex -->
<g id="edge6" class="edge">
<title>lib/discord_clone_web/router.ex&#45;&gt;lib/discord_clone_web/components/layouts.ex</title>
<path fill="none" stroke="black" d="M1174.11,-337.56C1237.53,-326.66 1313.06,-308.83 1333.04,-283 1358.42,-250.19 1311.96,-219.54 1272.2,-200.13"/>
<polygon fill="black" stroke="black" points="1273.6,-196.93 1263.07,-195.81 1270.61,-203.25 1273.6,-196.93"/>
</g>
<!-- lib/discord_clone_web/controllers/page_controller.ex -->
<g id="node10" class="node">
<title>lib/discord_clone_web/controllers/page_controller.ex</title>
<ellipse fill="none" stroke="black" cx="1080.04" cy="-265" rx="252.66" ry="18"/>
<text text-anchor="middle" x="1080.04" y="-261.3" font-family="Times,serif" font-size="14.00">lib/discord_clone_web/controllers/page_controller.ex</text>
</g>
<!-- lib/discord_clone_web/router.ex&#45;&gt;lib/discord_clone_web/controllers/page_controller.ex -->
<g id="edge13" class="edge">
<title>lib/discord_clone_web/router.ex&#45;&gt;lib/discord_clone_web/controllers/page_controller.ex</title>
<path fill="none" stroke="black" d="M1074.49,-333.8C1073.23,-322.16 1072.96,-306.55 1073.69,-293.24"/>
<polygon fill="black" stroke="black" points="1077.19,-293.42 1074.5,-283.18 1070.21,-292.87 1077.19,-293.42"/>
</g>
<!-- lib/discord_clone_web/router.ex&#45;&gt;lib/discord_clone_web/telemetry.ex -->
<g id="edge19" class="edge">
<title>lib/discord_clone_web/router.ex&#45;&gt;lib/discord_clone_web/telemetry.ex</title>
<path fill="none" stroke="black" d="M958.51,-340.57C905.03,-334.96 841.63,-326.9 785.04,-316 743.32,-307.96 697.2,-295.59 661.32,-285.16"/>
<polygon fill="black" stroke="black" points="662.06,-281.73 651.48,-282.27 660.09,-288.45 662.06,-281.73"/>
</g>
<!-- lib/discord_clone_web/components/layouts.ex&#45;&gt;lib/discord_clone_web/endpoint.ex -->
<g id="edge10" class="edge">
<title>lib/discord_clone_web/components/layouts.ex&#45;&gt;lib/discord_clone_web/endpoint.ex</title>
<path fill="none" stroke="black" d="M1298.56,-195.02C1312.63,-199.86 1326.78,-206.08 1339.04,-214 1366.98,-232.06 1382.08,-252.84 1368.04,-283 1337.16,-349.34 1307.01,-355.31 1242.04,-389 1228.57,-395.99 1213.58,-401.66 1198.67,-406.25"/>
<polygon fill="black" stroke="black" points="1197.51,-402.94 1188.89,-409.1 1199.47,-409.66 1197.51,-402.94"/>
</g>
<!-- lib/discord_clone_web/components/layouts.ex&#45;&gt;lib/discord_clone_web.ex -->
<g id="edge7" class="edge">
<title>lib/discord_clone_web/components/layouts.ex&#45;&gt;lib/discord_clone_web.ex</title>
<path fill="none" stroke="black" d="M1149.05,-161.01C1077.45,-145.95 970.67,-123.48 898.57,-108.31"/>
<polygon fill="black" stroke="black" points="899.14,-104.86 888.63,-106.22 897.7,-111.71 899.14,-104.86"/>
<text text-anchor="middle" x="1080.54" y="-130.8" font-family="Times,serif" font-size="14.00">(compile)</text>
</g>
<!-- lib/discord_clone_web/components/layouts.ex&#45;&gt;lib/discord_clone_web/router.ex -->
<g id="edge12" class="edge">
<title>lib/discord_clone_web/components/layouts.ex&#45;&gt;lib/discord_clone_web/router.ex</title>
<path fill="none" stroke="black" d="M1275.87,-195.64C1321.94,-214.58 1378.48,-247.53 1351.04,-283 1331.49,-308.28 1258.75,-325.89 1193.51,-336.85"/>
<polygon fill="black" stroke="black" points="1192.84,-333.41 1183.53,-338.48 1193.97,-340.32 1192.84,-333.41"/>
</g>
<!-- lib/discord_clone_web/components/core_components.ex -->
<g id="node8" class="node">
<title>lib/discord_clone_web/components/core_components.ex</title>
<ellipse fill="none" stroke="black" cx="1560.04" cy="-91" rx="267.55" ry="18"/>
<text text-anchor="middle" x="1560.04" y="-87.3" font-family="Times,serif" font-size="14.00">lib/discord_clone_web/components/core_components.ex</text>
</g>
<!-- lib/discord_clone_web/components/layouts.ex&#45;&gt;lib/discord_clone_web/components/core_components.ex -->
<g id="edge8" class="edge">
<title>lib/discord_clone_web/components/layouts.ex&#45;&gt;lib/discord_clone_web/components/core_components.ex</title>
<path fill="none" stroke="black" d="M1289.24,-160.71C1345.09,-146.54 1426.09,-125.99 1484.94,-111.06"/>
<polygon fill="black" stroke="black" points="1486.09,-114.37 1494.92,-108.52 1484.37,-107.59 1486.09,-114.37"/>
<text text-anchor="middle" x="1441.04" y="-130.8" font-family="Times,serif" font-size="14.00">(export)</text>
</g>
<!-- lib/discord_clone_web/gettext.ex -->
<g id="node9" class="node">
<title>lib/discord_clone_web/gettext.ex</title>
<ellipse fill="none" stroke="black" cx="1264.04" cy="-18" rx="161.67" ry="18"/>
<text text-anchor="middle" x="1264.04" y="-14.3" font-family="Times,serif" font-size="14.00">lib/discord_clone_web/gettext.ex</text>
</g>
<!-- lib/discord_clone_web/components/layouts.ex&#45;&gt;lib/discord_clone_web/gettext.ex -->
<g id="edge11" class="edge">
<title>lib/discord_clone_web/components/layouts.ex&#45;&gt;lib/discord_clone_web/gettext.ex</title>
<path fill="none" stroke="black" d="M1227.56,-159.65C1231.27,-135.61 1238.99,-90.95 1250.04,-54 1250.87,-51.24 1251.82,-48.39 1252.84,-45.57"/>
<polygon fill="black" stroke="black" points="1256.11,-46.82 1256.43,-36.23 1249.58,-44.3 1256.11,-46.82"/>
</g>
<!-- lib/discord_clone_web/components/core_components.ex&#45;&gt;lib/discord_clone_web/gettext.ex -->
<g id="edge9" class="edge">
<title>lib/discord_clone_web/components/core_components.ex&#45;&gt;lib/discord_clone_web/gettext.ex</title>
<path fill="none" stroke="black" d="M1491.39,-73.53C1445.63,-62.56 1385.5,-48.13 1338.57,-36.88"/>
<polygon fill="black" stroke="black" points="1339.31,-33.46 1328.77,-34.53 1337.68,-40.26 1339.31,-33.46"/>
</g>
<!-- lib/discord_clone_web/controllers/page_controller.ex&#45;&gt;lib/discord_clone_web/endpoint.ex -->
<g id="edge16" class="edge">
<title>lib/discord_clone_web/controllers/page_controller.ex&#45;&gt;lib/discord_clone_web/endpoint.ex</title>
<path fill="none" stroke="black" d="M1169.64,-281.87C1198.98,-291.79 1228.51,-307.88 1246.04,-334 1254.96,-347.29 1255.04,-356.77 1246.04,-370 1235.08,-386.11 1218.5,-397.41 1200.62,-405.34"/>
<polygon fill="black" stroke="black" points="1199.12,-402.17 1191.17,-409.19 1201.76,-408.66 1199.12,-402.17"/>
</g>
<!-- lib/discord_clone_web/controllers/page_controller.ex&#45;&gt;lib/discord_clone_web.ex -->
<g id="edge14" class="edge">
<title>lib/discord_clone_web/controllers/page_controller.ex&#45;&gt;lib/discord_clone_web.ex</title>
<path fill="none" stroke="black" d="M1000.31,-247.91C965.04,-237.67 924.88,-221.39 895.04,-196 869.08,-173.91 847.6,-140.82 834.59,-117.93"/>
<polygon fill="black" stroke="black" points="837.61,-116.15 829.71,-109.1 831.49,-119.54 837.61,-116.15"/>
<text text-anchor="middle" x="928.54" y="-174.3" font-family="Times,serif" font-size="14.00">(compile)</text>
</g>
<!-- lib/discord_clone_web/controllers/page_controller.ex&#45;&gt;lib/discord_clone_web/router.ex -->
<g id="edge18" class="edge">
<title>lib/discord_clone_web/controllers/page_controller.ex&#45;&gt;lib/discord_clone_web/router.ex</title>
<path fill="none" stroke="black" d="M1085.59,-283.18C1086.85,-294.81 1087.12,-310.42 1086.39,-323.73"/>
<polygon fill="black" stroke="black" points="1082.89,-323.55 1085.59,-333.8 1089.87,-324.11 1082.89,-323.55"/>
</g>
<!-- lib/discord_clone_web/controllers/page_controller.ex&#45;&gt;lib/discord_clone_web/components/layouts.ex -->
<g id="edge15" class="edge">
<title>lib/discord_clone_web/controllers/page_controller.ex&#45;&gt;lib/discord_clone_web/components/layouts.ex</title>
<path fill="none" stroke="black" d="M1109.04,-247C1131.56,-233.8 1162.97,-215.39 1187.43,-201.05"/>
<polygon fill="black" stroke="black" points="1189.24,-204.04 1196.1,-195.97 1185.7,-198.01 1189.24,-204.04"/>
</g>
<!-- lib/discord_clone_web/controllers/page_controller.ex&#45;&gt;lib/discord_clone_web/gettext.ex -->
<g id="edge17" class="edge">
<title>lib/discord_clone_web/controllers/page_controller.ex&#45;&gt;lib/discord_clone_web/gettext.ex</title>
<path fill="none" stroke="black" d="M1049.06,-247.11C1017.2,-227.43 974.89,-193.32 995.04,-160 1035.65,-92.87 1119.92,-56.14 1183.39,-37.15"/>
<polygon fill="black" stroke="black" points="1184.75,-40.4 1193.38,-34.26 1182.8,-33.68 1184.75,-40.4"/>
</g>
<!-- lib/discord_clone/mailer.ex -->
<g id="node12" class="node">
<title>lib/discord_clone/mailer.ex</title>
<ellipse fill="none" stroke="black" cx="1970.04" cy="-498" rx="133.78" ry="18"/>
<text text-anchor="middle" x="1970.04" y="-494.3" font-family="Times,serif" font-size="14.00">lib/discord_clone/mailer.ex</text>
</g>
<!-- lib/discord_clone_web/controllers/error_html.ex -->
<g id="node13" class="node">
<title>lib/discord_clone_web/controllers/error_html.ex</title>
<ellipse fill="none" stroke="black" cx="1109.04" cy="-498" rx="231.26" ry="18"/>
<text text-anchor="middle" x="1109.04" y="-494.3" font-family="Times,serif" font-size="14.00">lib/discord_clone_web/controllers/error_html.ex</text>
</g>
<!-- lib/discord_clone_web/controllers/error_html.ex&#45;&gt;lib/discord_clone_web/endpoint.ex -->
<g id="edge23" class="edge">
<title>lib/discord_clone_web/controllers/error_html.ex&#45;&gt;lib/discord_clone_web/endpoint.ex</title>
<path fill="none" stroke="black" d="M1109.04,-479.81C1109.04,-471.79 1109.04,-462.05 1109.04,-453.07"/>
<polygon fill="black" stroke="black" points="1112.54,-453.03 1109.04,-443.03 1105.54,-453.03 1112.54,-453.03"/>
</g>
<!-- lib/discord_clone_web/controllers/error_html.ex&#45;&gt;lib/discord_clone_web.ex -->
<g id="edge21" class="edge">
<title>lib/discord_clone_web/controllers/error_html.ex&#45;&gt;lib/discord_clone_web.ex</title>
<path fill="none" stroke="black" d="M940.08,-485.64C724.71,-466.97 371.79,-420.82 302.04,-316 262.32,-256.32 292.14,-210.48 343.04,-160 390.19,-113.25 562.03,-98.32 686.19,-93.73"/>
<polygon fill="black" stroke="black" points="686.67,-97.22 696.54,-93.37 686.43,-90.22 686.67,-97.22"/>
<text text-anchor="middle" x="335.54" y="-304.8" font-family="Times,serif" font-size="14.00">(compile)</text>
</g>
<!-- lib/discord_clone_web/controllers/error_html.ex&#45;&gt;lib/discord_clone_web/router.ex -->
<g id="edge25" class="edge">
<title>lib/discord_clone_web/controllers/error_html.ex&#45;&gt;lib/discord_clone_web/router.ex</title>
<path fill="none" stroke="black" d="M987.28,-482.53C965.31,-474.29 944.99,-461.81 931.04,-443 905.99,-409.22 952.2,-385.57 999.61,-371.02"/>
<polygon fill="black" stroke="black" points="1000.79,-374.32 1009.4,-368.14 998.82,-367.6 1000.79,-374.32"/>
</g>
<!-- lib/discord_clone_web/controllers/error_html.ex&#45;&gt;lib/discord_clone_web/components/core_components.ex -->
<g id="edge22" class="edge">
<title>lib/discord_clone_web/controllers/error_html.ex&#45;&gt;lib/discord_clone_web/components/core_components.ex</title>
<path fill="none" stroke="black" d="M1274.17,-485.35C1366.28,-478.14 1464.12,-468.95 1472.04,-462 1527.21,-413.56 1492.12,-372.44 1509.04,-301 1524.57,-235.44 1543.54,-158.51 1553.39,-118.77"/>
<polygon fill="black" stroke="black" points="1556.79,-119.6 1555.8,-109.05 1549.99,-117.91 1556.79,-119.6"/>
<text text-anchor="middle" x="1538.04" y="-304.8" font-family="Times,serif" font-size="14.00">(export)</text>
</g>
<!-- lib/discord_clone_web/controllers/error_html.ex&#45;&gt;lib/discord_clone_web/gettext.ex -->
<g id="edge24" class="edge">
<title>lib/discord_clone_web/controllers/error_html.ex&#45;&gt;lib/discord_clone_web/gettext.ex</title>
<path fill="none" stroke="black" d="M1201.91,-481.48C1231.11,-473.42 1262.19,-461.27 1287.04,-443 1394,-364.35 1415.98,-322.89 1455.04,-196 1459.75,-180.71 1465.14,-172.41 1455.04,-160 1430.11,-129.38 1405.91,-153.18 1368.04,-142 1329.18,-130.52 1309.28,-139.88 1283.04,-109 1268.38,-91.75 1264.13,-66.01 1263.26,-46.47"/>
<polygon fill="black" stroke="black" points="1266.76,-46.28 1263.07,-36.35 1259.76,-46.41 1266.76,-46.28"/>
</g>
<!-- lib/discord_clone_web/controllers/error_json.ex -->
<g id="node14" class="node">
<title>lib/discord_clone_web/controllers/error_json.ex</title>
<ellipse fill="none" stroke="black" cx="2351.04" cy="-498" rx="228.56" ry="18"/>
<text text-anchor="middle" x="2351.04" y="-494.3" font-family="Times,serif" font-size="14.00">lib/discord_clone_web/controllers/error_json.ex</text>
</g>
<!-- lib/discord_clone_web/controllers/page_html.ex -->
<g id="node15" class="node">
<title>lib/discord_clone_web/controllers/page_html.ex</title>
<ellipse fill="none" stroke="black" cx="1589.04" cy="-498" rx="229.36" ry="18"/>
<text text-anchor="middle" x="1589.04" y="-494.3" font-family="Times,serif" font-size="14.00">lib/discord_clone_web/controllers/page_html.ex</text>
</g>
<!-- lib/discord_clone_web/controllers/page_html.ex&#45;&gt;lib/discord_clone_web/endpoint.ex -->
<g id="edge28" class="edge">
<title>lib/discord_clone_web/controllers/page_html.ex&#45;&gt;lib/discord_clone_web/endpoint.ex</title>
<path fill="none" stroke="black" d="M1486.66,-481.86C1406.26,-469.96 1294.74,-453.47 1213.74,-441.49"/>
<polygon fill="black" stroke="black" points="1213.93,-437.98 1203.52,-439.98 1212.91,-444.9 1213.93,-437.98"/>
</g>
<!-- lib/discord_clone_web/controllers/page_html.ex&#45;&gt;lib/discord_clone_web.ex -->
<g id="edge26" class="edge">
<title>lib/discord_clone_web/controllers/page_html.ex&#45;&gt;lib/discord_clone_web.ex</title>
<path fill="none" stroke="black" d="M1590.2,-479.97C1591.94,-444.97 1592.65,-363.03 1567.04,-301 1536.5,-227.03 1525.15,-198.59 1455.04,-160 1371.83,-114.2 1115.29,-99.24 955.19,-94.36"/>
<polygon fill="black" stroke="black" points="954.88,-90.85 944.78,-94.06 954.67,-97.85 954.88,-90.85"/>
<text text-anchor="middle" x="1605.54" y="-304.8" font-family="Times,serif" font-size="14.00">(compile)</text>
</g>
<!-- lib/discord_clone_web/controllers/page_html.ex&#45;&gt;lib/discord_clone_web/router.ex -->
<g id="edge30" class="edge">
<title>lib/discord_clone_web/controllers/page_html.ex&#45;&gt;lib/discord_clone_web/router.ex</title>
<path fill="none" stroke="black" d="M1535.47,-480.43C1475.22,-461.93 1374.38,-431.4 1287.04,-407 1242.36,-394.52 1192,-381.36 1152.14,-371.16"/>
<polygon fill="black" stroke="black" points="1152.79,-367.71 1142.24,-368.63 1151.06,-374.5 1152.79,-367.71"/>
</g>
<!-- lib/discord_clone_web/controllers/page_html.ex&#45;&gt;lib/discord_clone_web/components/core_components.ex -->
<g id="edge27" class="edge">
<title>lib/discord_clone_web/controllers/page_html.ex&#45;&gt;lib/discord_clone_web/components/core_components.ex</title>
<path fill="none" stroke="black" d="M1634.57,-480.34C1656.89,-468.95 1679.04,-451.28 1679.04,-426 1679.04,-426 1679.04,-426 1679.04,-177 1679.04,-146.66 1653.11,-126.13 1625.46,-112.85"/>
<polygon fill="black" stroke="black" points="1626.61,-109.53 1616.06,-108.63 1623.74,-115.92 1626.61,-109.53"/>
<text text-anchor="middle" x="1708.04" y="-304.8" font-family="Times,serif" font-size="14.00">(export)</text>
</g>
<!-- lib/discord_clone_web/controllers/page_html.ex&#45;&gt;lib/discord_clone_web/gettext.ex -->
<g id="edge29" class="edge">
<title>lib/discord_clone_web/controllers/page_html.ex&#45;&gt;lib/discord_clone_web/gettext.ex</title>
<path fill="none" stroke="black" d="M1728.41,-483.62C1793.14,-473.4 1856.04,-455.8 1856.04,-426 1856.04,-426 1856.04,-426 1856.04,-90 1856.04,-46.91 1605.57,-29.84 1430.47,-23.16"/>
<polygon fill="black" stroke="black" points="1430.48,-19.66 1420.36,-22.79 1430.22,-26.66 1430.48,-19.66"/>
</g>
</g>
</svg>
